<?xml version="1.0" standalone="no"?>
<!DOCTYPE svg PUBLIC "-//W3C//DTD SVG 20010904//EN"
 "http://www.w3.org/TR/2001/REC-SVG-20010904/DTD/svg10.dtd">
<svg version="1.0" xmlns="http://www.w3.org/2000/svg"
 width="600.000000pt" height="600.000000pt" viewBox="0 0 600.000000 600.000000"
 preserveAspectRatio="xMidYMid meet">
<metadata>
Created by potrace 1.11, written by Peter Selinger 2001-2013
</metadata>
<g transform="translate(0.000000,600.000000) scale(0.100000,-0.100000)"
fill="#000000" stroke="none">
<path d="M2966 5811 c-4 -5 -37 -26 -74 -47 -37 -20 -98 -56 -137 -79 -76 -46
-335 -197 -480 -280 -49 -28 -135 -78 -190 -110 -55 -32 -147 -86 -205 -120
-58 -34 -120 -70 -138 -81 -145 -84 -248 -144 -532 -309 -179 -103 -361 -209
-405 -235 -44 -26 -116 -68 -161 -94 l-81 -47 -6 -167 c-5 -119 -10 -2044 -7
-2664 0 -11 49 -46 147 -104 82 -47 180 -105 218 -129 39 -23 124 -74 190
-113 66 -38 237 -140 380 -224 143 -85 361 -215 485 -288 124 -73 245 -145
270 -160 25 -15 113 -67 195 -116 83 -48 218 -128 300 -177 83 -49 169 -100
192 -113 l42 -24 88 51 c48 28 176 102 283 164 107 62 267 154 355 205 88 51
216 125 285 165 281 162 545 315 715 413 99 58 209 121 245 142 36 20 126 72
200 115 74 43 163 95 198 114 39 22 64 43 67 56 2 11 6 651 8 1423 l5 1402
-41 28 c-38 26 -261 159 -312 186 -24 14 -393 232 -490 291 -38 23 -99 59
-135 79 -36 21 -92 53 -125 73 -126 75 -457 270 -605 358 -460 272 -562 332
-636 377 -84 49 -99 55 -108 39z m102 -234 c40 -23 136 -80 215 -127 290 -172
394 -234 482 -286 162 -95 679 -402 740 -439 71 -43 409 -243 550 -326 55 -32
120 -70 144 -84 l44 -26 -6 -502 c-4 -276 -7 -872 -7 -1324 l0 -822 -72 -44
c-40 -24 -116 -69 -168 -99 -52 -31 -141 -84 -198 -117 -56 -34 -105 -61 -108
-61 -2 0 -23 -12 -47 -27 -23 -15 -82 -50 -132 -78 -49 -28 -155 -90 -235
-136 -293 -172 -467 -274 -555 -324 -101 -59 -285 -166 -420 -245 -49 -29
-108 -63 -130 -75 -22 -13 -71 -42 -110 -64 -38 -23 -79 -41 -90 -41 -11 0
-49 18 -85 40 -36 23 -117 71 -180 109 -63 37 -187 110 -275 163 -88 52 -216
128 -285 168 -69 40 -217 128 -330 196 -113 67 -248 147 -300 177 -52 31 -122
72 -155 92 -33 20 -148 88 -255 152 -107 63 -237 140 -288 170 l-92 55 0 907
c0 499 3 1097 7 1329 l6 422 71 42 c39 23 109 64 156 91 47 28 126 74 175 102
202 118 339 197 515 300 379 222 418 245 560 325 80 46 172 99 205 120 61 38
222 132 285 167 19 11 61 35 93 54 32 19 83 48 112 64 29 17 57 33 61 38 13
12 27 7 102 -36z"/>
<path d="M2915 5336 c-57 -35 -378 -221 -510 -296 -16 -9 -97 -56 -180 -105
-82 -48 -197 -114 -255 -148 -58 -33 -141 -82 -185 -107 -44 -26 -123 -72
-175 -102 -52 -30 -153 -89 -225 -130 -71 -42 -177 -103 -235 -137 -58 -33
-123 -71 -146 -85 l-41 -24 -6 -77 c-4 -43 -7 -581 -7 -1195 l0 -1117 383
-228 c210 -125 400 -239 422 -253 22 -14 69 -42 105 -62 63 -35 176 -103 290
-173 30 -18 156 -94 280 -167 124 -74 295 -176 380 -227 139 -84 156 -91 175
-79 11 7 81 48 155 91 219 128 287 167 440 257 255 149 450 262 483 282 121
69 851 494 887 516 l45 27 5 1182 c3 650 2 1188 -2 1195 -4 8 -38 31 -75 53
-143 85 -211 125 -543 323 -135 80 -301 179 -370 220 -69 40 -204 120 -300
178 -96 57 -211 125 -255 151 -133 79 -408 242 -440 262 l-31 18 -69 -43z"/>
</g>
</svg>
